<svg xmlns="http://www.w3.org/2000/svg" xmlns:xlink="http://www.w3.org/1999/xlink" xmlns:sketch="http://www.bohemiancoding.com/sketch/ns" viewBox="0 0 98 122.5" version="1.1" x="0px" y="0px"><title>Tour Taille</title><desc>Created with Sketch.</desc><g stroke="none" stroke-width="1" fill="none" fill-rule="evenodd" sketch:type="MSPage"><g sketch:type="MSLayerGroup" transform="translate(-436.000000, -1.000000)" fill="#000000"><g transform="translate(435.000000, 0.000000)" sketch:type="MSShapeGroup"><path d="M50,17 L50,17 C53.3137085,17 56,14.3137085 56,11 C56,7.6862915 53.3137085,5 50,5 C46.6862915,5 44,7.6862915 44,11 C44,14.3137085 46.6862915,17 50,17 L50,17 Z M50,21 L50,21 C44.4771525,21 40,16.5228475 40,11 C40,5.4771525 44.4771525,1 50,1 C55.5228475,1 60,5.4771525 60,11 C60,16.5228475 55.5228475,21 50,21 L50,21 Z M60.8163614,61.1680909 L60.8163614,61.1680909 C63.295323,60.4001507 65,58.1429984 65,55.5712101 L65,32.8703483 C65,29.6424629 62.3209659,27 58.991103,27 L41.008897,27 C37.6717685,27 35,29.6366605 35,32.8703483 L35,55.5712101 C35,58.1374439 36.7080207,60.3977327 39.1864762,61.167534 L42,62.0414066 L42,64.9875175 L42,89.1377939 C42,92.36015 44.6771634,95 48.0043725,95 L51.9956275,95 C55.3203358,95 58,92.3596823 58,89.1377939 L58,64.9889546 L58,62.0405518 L60.8163614,61.1680909 Z M62,64.9889546 L62,64.9889546 L62,89.1377939 C62,94.5845399 57.5139376,99 51.9956275,99 L48.0043725,99 C42.4791101,99 38,94.5805891 38,89.1377939 L38,64.9875175 C33.9425,63.7272694 31,59.9862882 31,55.5712101 L31,32.8703483 C31,27.4191055 35.4708256,23 41.008897,23 L58.991103,23 C64.5188642,23 69,27.4218828 69,32.8703483 L69,55.5712101 C69,59.9899356 66.0624132,63.7304881 62,64.9889546 Z M99,70 L99,42 L74,56 L99,70 Z M95,63.176 L82.187,56 L95,48.825 L95,63 L95,63.176 Z M1,42 L1,70 L26,56 L1,42 Z M5,48.824 L17.813,56 L5,63.175 L5,49 L5,48.824 Z"/></g></g></g><text x="0" y="113" fill="#000000" font-size="5px" font-weight="bold" font-family="'Helvetica Neue', Helvetica, Arial-Unicode, Arial, Sans-serif">Created by Nicolas Vergoz</text><text x="0" y="118" fill="#000000" font-size="5px" font-weight="bold" font-family="'Helvetica Neue', Helvetica, Arial-Unicode, Arial, Sans-serif">from the Noun Project</text></svg>